<svg width="380" height="402" viewBox="0 0 380 402" fill="none" xmlns="http://www.w3.org/2000/svg">
<path d="M190 0.999494L227.252 65.478L227.489 65.8897L227.913 65.6729L292.204 32.7351L290.589 108.324L290.58 108.774L291.026 108.831L361.984 117.898L321.977 180.593L321.746 180.955L322.069 181.238L377.154 229.471L311.465 259.328L311.068 259.509L311.194 259.927L332.88 331.993L262.403 319.548L261.946 319.468L261.832 319.917L243.256 392.903L190.346 342.143L190 341.811L189.654 342.143L136.744 392.903L118.168 319.917L118.054 319.468L117.597 319.548L47.1204 331.993L68.8064 259.927L68.9323 259.509L68.5345 259.328L2.84647 229.471L57.9309 181.238L58.2541 180.955L58.023 180.593L18.0157 117.898L88.9743 108.831L89.4204 108.774L89.4108 108.324L87.796 32.7351L152.087 65.6729L152.511 65.8897L152.748 65.478L190 0.999494Z" fill="#F8EED5" stroke="#111111"/>
<path d="M190 71.6211L214.011 113.182L214.249 113.593L214.672 113.377L256.113 92.1458L255.071 140.882L255.062 141.332L255.508 141.389L301.26 147.235L275.459 187.668L275.228 188.031L275.551 188.314L311.076 219.42L268.716 238.674L268.318 238.855L268.444 239.273L282.428 285.746L236.995 277.723L236.538 277.642L236.423 278.092L224.449 325.142L190.346 292.426L190 292.093L189.654 292.426L155.551 325.142L143.577 278.092L143.462 277.642L143.005 277.723L97.5718 285.746L111.556 239.273L111.682 238.855L111.284 238.674L68.9238 219.42L104.449 188.314L104.772 188.031L104.541 187.668L78.7398 147.235L124.492 141.389L124.938 141.332L124.929 140.882L123.887 92.1458L165.328 113.377L165.751 113.593L165.989 113.182L190 71.6211Z" fill="#EDD5BF" stroke="#111111"/>
<path d="M190 132.283L202.638 154.158L202.876 154.57L203.299 154.353L225.111 143.178L224.563 168.849L224.553 169.298L224.999 169.355L249.1 172.435L235.501 193.746L235.269 194.108L235.593 194.391L254.318 210.787L231.995 220.934L231.597 221.114L231.723 221.533L239.092 246.021L215.17 241.797L214.713 241.716L214.598 242.166L208.294 266.938L190.346 249.719L190 249.387L189.654 249.719L171.707 266.938L165.402 242.166L165.287 241.716L164.83 241.797L140.908 246.021L148.277 221.533L148.403 221.114L148.005 220.934L125.682 210.787L144.407 194.391L144.731 194.108L144.5 193.746L130.9 172.435L155.001 169.355L155.447 169.298L155.437 168.849L154.889 143.178L176.701 154.353L177.124 154.57L177.362 154.158L190 132.283Z" fill="#DC7E7E" stroke="#111111"/>
</svg>
