<svg width="289" height="308" viewBox="0 0 289 308" fill="none" xmlns="http://www.w3.org/2000/svg">
<path d="M683.779 302.78C665.059 310.725 655.575 306.59 655.327 290.375C655.078 274.16 645.594 270.025 626.875 277.97C608.155 285.915 598.671 281.78 598.422 265.565C598.174 249.35 588.69 245.215 569.97 253.16C551.25 261.105 541.766 256.97 541.518 240.755C541.27 224.54 531.786 220.405 513.066 228.35C494.346 236.295 484.862 232.16 484.614 215.945C484.365 199.73 474.881 195.595 456.162 203.54C437.442 211.485 427.958 207.35 427.709 191.135C427.461 174.92 417.977 170.785 399.257 178.73C380.537 186.675 371.053 182.54 370.805 166.325C370.557 150.11 361.073 145.975 342.353 153.92C323.633 161.865 314.149 157.73 313.901 141.515C313.652 125.3 304.168 121.165 285.449 129.11C266.729 137.055 257.245 132.92 256.996 116.705C256.748 100.49 247.264 96.3549 228.544 104.3C209.824 112.245 200.34 108.11 200.092 91.8952C199.844 75.6799 190.36 71.5449 171.64 79.4902C152.92 87.4355 143.436 83.3005 143.188 67.0852C142.939 50.8699 133.455 46.7349 114.736 54.6802C96.0156 62.6255 86.5316 58.4905 86.2833 42.2752C86.0351 26.0599 76.551 21.9249 57.8312 29.8702C39.1113 37.8155 29.6272 33.6805 29.379 17.4652C29.1308 1.24992 19.6467 -2.88508 0.926835 5.06023" stroke="black" stroke-width="2"/>
</svg>
